<svg xmlns="http://www.w3.org/2000/svg" viewBox="0 0 410.96 312.74"><defs><style>.cls-1,.cls-3{opacity:0.33;}.cls-2,.cls-3{fill:#15927c;}.cls-4{fill:#0b5b50;}.cls-5{fill:#005e50;}.cls-6{fill:#13937e;}.cls-7{fill:#2d0e03;}.cls-8{fill:#ff5e1e;}.cls-9{fill:#000601;}.cls-10{fill:#fff;}.cls-11{fill:#fcfcfc;}.cls-12{fill:#878784;}.cls-13{fill:#061760;}.cls-14{fill:#ddd;}.cls-15{fill:#ffd357;}.cls-16{fill:#feffff;}.cls-17{fill:#056354;}</style></defs><title>Fichier 4</title><g id="Calque_2" data-name="Calque 2"><g id="OBJECTS"><g class="cls-1"><path class="cls-2" d="M242.32,292.06c-28.43-9-59.17-6.14-88.63-10.81-24.22-3.85-48.42-13.44-64.82-31.67S65.61,203.35,76.6,181.42c9.45-18.87,30.88-32.83,31.14-53.94.11-8.63-3.55-16.79-5.78-25.13-7.62-28.44,2.69-60.87,25.34-79.69C141.55,10.82,162,4.4,179,11.82c10.73,4.68,18.76,14.16,29.41,19,13.4,6.14,28.89,4.2,43.61,4.91,15.22.72,30.68,4.62,42.86,13.77s20.56,24.12,19.24,39.29c-.55,6.43-2.6,13.56,1.08,18.85,1.61,2.31,4.08,3.84,6.43,5.38,15.69,10.33,29.07,24.62,36.54,41.86s8.64,37.49,1.39,54.82c-5,11.88-13.58,21.91-23,30.73a183.68,183.68,0,0,1-74.71,42.39"/></g><ellipse class="cls-3" cx="212.05" cy="295" rx="156.43" ry="17.74"/><path class="cls-4" d="M359.81,194.72a270.56,270.56,0,0,1-22.62,24.65,270.25,270.25,0,0,1-25.28,21.55q-7.53,5.66-15.44,10.79c-1,.64-.07,2.23.92,1.58a274.42,274.42,0,0,0,27.09-20,273.47,273.47,0,0,0,24.27-23q6.42-6.9,12.36-14.22a1,1,0,0,0,0-1.3.93.93,0,0,0-1.3,0Z"/><path class="cls-4" d="M358.08,198.24c2.07-6.78,4.32-13.57,7.86-19.72s8.46-11.68,14.8-14.86a11.13,11.13,0,0,1,5.6-1.46,5.16,5.16,0,0,1,4.6,3.08,6.34,6.34,0,0,1,.1,3.18c-.71,4-3.05,7.47-5.57,10.62-7,8.78-17.28,14.21-27.39,19.16"/><path class="cls-4" d="M317.06,237.83c-1.48-6.94-2.81-14-2.7-21.06s1.74-14.32,5.74-20.18a11.13,11.13,0,0,1,4.19-4,5.15,5.15,0,0,1,5.51.47,6.1,6.1,0,0,1,1.63,2.73c1.31,3.82,1,8,.28,12-1.89,11.1-8.22,20.81-14.65,30.05"/><path class="cls-4" d="M342.78,214.93a59.77,59.77,0,0,1-2.65-13.5A24.07,24.07,0,0,1,343.05,188a7.6,7.6,0,0,1,2.6-2.85,3.42,3.42,0,0,1,3.64,0,3.86,3.86,0,0,1,1.19,1.67,15.63,15.63,0,0,1,.69,7.76c-.78,7.31-4.54,14-8.39,20.37"/><path class="cls-4" d="M347.57,210.2c6.72-5.11,19.22-13.75,27.45-15.59,4.48-1,9.68-1.3,13.13,1.73a4.5,4.5,0,0,1,1.73,3.39c-.07,1.47-1.18,2.66-2.31,3.61-5.13,4.3-11.8,6.38-18.43,7.34a65.63,65.63,0,0,1-21.57-.48"/><path class="cls-4" d="M310.06,243.81c8.21-2,23.14-4.83,31.41-3.19,4.5.89,9.38,2.72,11.31,6.88a4.44,4.44,0,0,1,.22,3.79c-.65,1.32-2.15,2-3.57,2.38-6.43,1.87-13.37,1.08-19.83-.72a65.5,65.5,0,0,1-19.54-9.14"/><path class="cls-4" d="M332.66,225c6.92-2.84,19.62-7.37,27.09-7.06,4.07.17,8.59,1.12,10.84,4.5a3.92,3.92,0,0,1,.71,3.3,4.8,4.8,0,0,1-2.8,2.56c-5.39,2.51-11.58,2.76-17.48,2.06A58.34,58.34,0,0,1,332.66,225"/><path class="cls-4" d="M47.92,180.43a226.44,226.44,0,0,1,23,15.76,227.07,227.07,0,0,1,20.76,18.33q5.55,5.55,10.72,11.47c.64.74,1.84-.2,1.19-1a229.64,229.64,0,0,0-19.71-20A226.3,226.3,0,0,0,62,187.73q-6.44-4.5-13.19-8.53a.79.79,0,0,0-1.07.15.78.78,0,0,0,.16,1.08Z"/><path class="cls-4" d="M51,181.44c-5.84-.91-11.71-2-17.2-4.16s-10.63-5.61-14-10.47A9.24,9.24,0,0,1,18,162.36a4.29,4.29,0,0,1,2-4.15,5.17,5.17,0,0,1,2.61-.46c3.37.12,6.52,1.63,9.42,3.35,8.08,4.77,13.76,12.58,19,20.34"/><path class="cls-4" d="M88.52,210.63c-5.55,2-11.19,4-17.06,4.71s-12,.25-17.32-2.36a9.31,9.31,0,0,1-3.79-3,4.29,4.29,0,0,1-.26-4.61,5.17,5.17,0,0,1,2.06-1.66c3-1.53,6.49-1.74,9.85-1.64,9.38.25,18.14,4.33,26.52,8.55"/><path class="cls-4" d="M66.6,192.1a50.43,50.43,0,0,1-10.83,3.78,20.09,20.09,0,0,1-11.43-.83,6.26,6.26,0,0,1-2.65-1.81,2.84,2.84,0,0,1-.45-3,3.2,3.2,0,0,1,1.24-1.18,13,13,0,0,1,6.32-1.48c6.12-.22,12.08,2.1,17.8,4.52"/><path class="cls-4" d="M62.13,188.71c-5-4.94-13.61-14.24-16.1-20.82-1.35-3.58-2.2-7.84-.11-11A3.76,3.76,0,0,1,48.51,155a4.55,4.55,0,0,1,3.25,1.49c4.16,3.73,6.66,9,8.23,14.34a54.72,54.72,0,0,1,2.14,17.86"/><path class="cls-4" d="M94.28,215.7c-2.59-6.54-6.71-18.52-6.33-25.54.21-3.82,1.14-8.06,4.35-10.14a3.66,3.66,0,0,1,3.1-.63,4.49,4.49,0,0,1,2.38,2.66c2.3,5.09,2.47,10.91,1.74,16.45a54.62,54.62,0,0,1-5.24,17.2"/><path class="cls-4" d="M76.13,199.27c-3.16-5.39-8.39-15.33-9-21.53-.34-3.38-.09-7.22,2.43-9.48a3.34,3.34,0,0,1,2.64-1,4,4,0,0,1,2.45,2c2.7,4.15,3.64,9.23,3.75,14.18a48.31,48.31,0,0,1-2.26,15.79"/><path class="cls-5" d="M315.92,115.75A101.26,101.26,0,0,1,327.5,93.92,102.66,102.66,0,0,1,344,75.49,100.1,100.1,0,0,1,355.06,67c.81-.54.05-1.86-.78-1.32a103,103,0,0,0-19.23,16.37,103.81,103.81,0,0,0-20.61,33.27.77.77,0,0,0,1.48.41Z"/><path class="cls-5" d="M321.44,104a69.09,69.09,0,0,1,21.11-11.91q3.26-1.14,6.6-2c1-.23.55-1.71-.41-1.47a70.69,70.69,0,0,0-22.71,10,68.52,68.52,0,0,0-5.67,4.24c-.76.62.33,1.7,1.08,1.08Z"/><path class="cls-6" d="M343.66,75.13A30,30,0,0,1,354,49.07,36.53,36.53,0,0,1,368.34,42a93.85,93.85,0,0,1,10.28-1.88l9-1.31a1,1,0,0,1,.81.12,1,1,0,0,1,.12,1c-.55,2.41-1.11,4.82-1.8,7.19-2.53,8.69-7.1,17.06-14.31,22.55a34,34,0,0,1-28.74,5.53"/><path class="cls-4" d="M340.91,91.63a24.67,24.67,0,0,1,18.7-13.39,30,30,0,0,1,13.08,1.48A77.8,77.8,0,0,1,380.62,83l6.76,3.08c.21.1.44.22.5.45s-.14.52-.34.72c-1.46,1.41-2.91,2.83-4.44,4.16-5.61,4.87-12.49,8.61-19.9,9.19a27.91,27.91,0,0,1-22.29-9"/><path class="cls-5" d="M108.85,225.76a101.43,101.43,0,0,1-13.37,20.78,103.2,103.2,0,0,1-18,17A99.52,99.52,0,0,1,65.76,271c-.87.47-.21,1.86.66,1.39A103.63,103.63,0,0,0,87,257.71a105.43,105.43,0,0,0,16.32-19.08,103.61,103.61,0,0,0,7-12.34.78.78,0,0,0-.45-1,.79.79,0,0,0-1,.46Z"/><path class="cls-5" d="M102.36,237a69,69,0,0,1-22,10.09,67.12,67.12,0,0,1-6.74,1.39.77.77,0,0,0,.28,1.51A70.94,70.94,0,0,0,97.34,242q3.09-1.72,6-3.75c.81-.56-.18-1.73-1-1.17Z"/><path class="cls-4" d="M75.47,265.26A30,30,0,0,1,63,290.35a36.51,36.51,0,0,1-14.92,5.88,95.32,95.32,0,0,1-10.4,1l-9,.55a1,1,0,0,1-.8-.19c-.23-.25-.14-.65,0-1,.76-2.36,1.51-4.71,2.4-7,3.26-8.45,8.52-16.4,16.16-21.26a34,34,0,0,1,29.1-3.09"/><path class="cls-6" d="M81.92,247.68a24.67,24.67,0,0,1-19.76,11.78,30.08,30.08,0,0,1-12.9-2.58A77.37,77.37,0,0,1,41.63,253l-6.48-3.64c-.2-.11-.42-.26-.46-.49s.19-.51.4-.68c1.57-1.29,3.14-2.58,4.78-3.78,6-4.38,13.16-7.53,20.59-7.48a27.91,27.91,0,0,1,21.46,10.8"/><path class="cls-7" d="M94.84,75.05a.89.89,0,0,0-.92.87,216.52,216.52,0,0,0,2.14,24.4,101.55,101.55,0,0,0,5.86,22.09,74.86,74.86,0,0,0,3.47,7.43c-2.76-2.26-5.44-4.62-8-7.09a.88.88,0,0,0-.22-.21c-.45-.43-.9-.84-1.34-1.28a98.88,98.88,0,0,1-12-14.28c-.3-.45-.6-.9-.89-1.36a94.27,94.27,0,0,0-.92-24q-.57-3.31-1.36-6.59a.89.89,0,0,0-1.74.41A91.81,91.81,0,0,1,81.47,99c0,1.36-.09,2.72-.18,4.08a117.62,117.62,0,0,1-7-13.63,108.91,108.91,0,0,1-6.49-18.81c-.18-.79-.36-1.59-.52-2.39-.22-1.12-2-.71-1.74.42a102.29,102.29,0,0,0,6.15,19.23,115.8,115.8,0,0,0,9.26,18,98,98,0,0,0,11.9,14.89c.08.08.16.15.23.23a72.34,72.34,0,0,1-12-6,73.22,73.22,0,0,1-13.67-11,74.1,74.1,0,0,1-6.44-7.6.9.9,0,0,0-1.26,0,.91.91,0,0,0,0,1.26A75,75,0,0,0,87,120.29,75.14,75.14,0,0,0,96.08,124c3.5,3.35,7.2,6.5,11,9.49,5,3.95,10.26,7.62,15.58,11.15l1.93,1.27a.9.9,0,0,0,1-1.51c-5.28-3.46-10.49-7-15.52-10.88l-.9-.7s0,0,0-.06a73.32,73.32,0,0,1-6.64-13.94,1,1,0,0,0,.09-.18,49.93,49.93,0,0,0,2-17.15.91.91,0,0,0-.87-.91.89.89,0,0,0-.92.86,48.1,48.1,0,0,1-1.28,14.4c-.35-1.1-.68-2.2-1-3.31a129.45,129.45,0,0,1-3.93-23C96.15,85,95.9,80.5,95.71,76A.91.91,0,0,0,94.84,75.05Z"/><path class="cls-8" d="M60.47,91.12a4.71,4.71,0,1,1-5.88,3.12A4.7,4.7,0,0,1,60.47,91.12Z"/><path class="cls-8" d="M67,63.47a4.71,4.71,0,1,1-5.87,3.13A4.72,4.72,0,0,1,67,63.47Z"/><path class="cls-8" d="M80.78,69.94a4.71,4.71,0,1,1-5.88,3.13A4.71,4.71,0,0,1,80.78,69.94Z"/><path class="cls-8" d="M96.29,86.55a4.71,4.71,0,1,1-5.87,3.12A4.71,4.71,0,0,1,96.29,86.55Z"/><path class="cls-8" d="M75.45,108.49a4.71,4.71,0,1,1-5.88,3.13A4.7,4.7,0,0,1,75.45,108.49Z"/><path class="cls-8" d="M106.05,96.64a4.71,4.71,0,1,1-5.88,3.12A4.69,4.69,0,0,1,106.05,96.64Z"/><path class="cls-8" d="M95.33,70.24a4.71,4.71,0,1,1-5.88,3.12A4.71,4.71,0,0,1,95.33,70.24Z"/><path class="cls-7" d="M354.68,157.92a.64.64,0,0,0-.66-.61,155,155,0,0,0-17.28,2.77,72.43,72.43,0,0,0-15.44,5.3,55.46,55.46,0,0,0-5.11,2.85c1.47-2.08,3-4.11,4.64-6.07A.54.54,0,0,0,321,162c.28-.34.55-.69.84-1a70,70,0,0,1,9.56-9.3l.92-.71a66.82,66.82,0,0,0,17-1.88c1.56-.38,3.1-.81,4.63-1.3a.64.64,0,0,0-.38-1.22,65.39,65.39,0,0,1-16.63,3.05c-1,0-1.95.07-2.92.08a81.92,81.92,0,0,1,9.36-5.69,76.7,76.7,0,0,1,13.06-5.58c.55-.18,1.11-.34,1.67-.5.8-.22.41-1.43-.38-1.21a72.27,72.27,0,0,0-13.39,5.36A82.59,82.59,0,0,0,332,149.59a70.56,70.56,0,0,0-10,9.24l-.15.18a51.07,51.07,0,0,1,3.7-8.88,52.32,52.32,0,0,1,12.23-15.27.63.63,0,0,0,0-.9.66.66,0,0,0-.91,0,53.34,53.34,0,0,0-14.79,20.63,53.86,53.86,0,0,0-2.18,6.69,102.6,102.6,0,0,0-6.2,8.32c-2.56,3.78-4.9,7.7-7.15,11.67-.27.48-.54,1-.8,1.44-.41.72.72,1.32,1.12.61,2.19-3.94,4.48-7.84,7-11.61l.46-.68,0,0a52.75,52.75,0,0,1,9.59-5.44l.13.06a35.93,35.93,0,0,0,12.32.52.66.66,0,0,0,.61-.67.65.65,0,0,0-.67-.61,34.66,34.66,0,0,1-10.32-.17c.77-.31,1.53-.6,2.31-.88a91.78,91.78,0,0,1,16.17-4c3.2-.52,6.42-.93,9.64-1.3A.64.64,0,0,0,354.68,157.92Z"/><path class="cls-8" d="M341.48,134.25a3.36,3.36,0,1,1-2.53-4A3.37,3.37,0,0,1,341.48,134.25Z"/><path class="cls-8" d="M361.5,137.5a3.36,3.36,0,1,1-2.52-4A3.35,3.35,0,0,1,361.5,137.5Z"/><path class="cls-8" d="M357.6,147.64a3.36,3.36,0,1,1-2.53-4A3.36,3.36,0,0,1,357.6,147.64Z"/><path class="cls-8" d="M346.56,159.54a3.36,3.36,0,1,1-2.52-4A3.37,3.37,0,0,1,346.56,159.54Z"/><path class="cls-8" d="M329.86,145.82a3.36,3.36,0,1,1-2.52-4A3.35,3.35,0,0,1,329.86,145.82Z"/><path class="cls-8" d="M339.87,167a3.36,3.36,0,1,1-2.52-4A3.34,3.34,0,0,1,339.87,167Z"/><path class="cls-8" d="M358.13,158a3.36,3.36,0,1,1-2.52-4A3.35,3.35,0,0,1,358.13,158Z"/><path class="cls-8" d="M47.11,127.44A8.43,8.43,0,0,1,48.53,124a4.21,4.21,0,0,1,1.39-1.33,1.86,1.86,0,0,1,1-.27,1.12,1.12,0,0,1,.89.47,1.51,1.51,0,0,1-.14,1.54,5.88,5.88,0,0,1-2,1.88c-.78.48-1.61.87-2.39,1.36"/><path class="cls-8" d="M47.27,127.34a8.26,8.26,0,0,1,3.49-1.26,4.29,4.29,0,0,1,1.92.13,1.87,1.87,0,0,1,.87.56,1.12,1.12,0,0,1,.25,1,1.49,1.49,0,0,1-1.23.94,5.76,5.76,0,0,1-2.73-.2c-.88-.25-1.73-.61-2.61-.86"/><path class="cls-8" d="M47.51,127.18a8.24,8.24,0,0,1-3.55,1.1,4.41,4.41,0,0,1-1.91-.21,2,2,0,0,1-.85-.6,1.11,1.11,0,0,1-.2-1,1.51,1.51,0,0,1,1.27-.87,5.7,5.7,0,0,1,2.71.32c.88.29,1.71.68,2.58,1"/><path class="cls-8" d="M47.49,127.66A8.44,8.44,0,0,1,45,124.92a4.43,4.43,0,0,1-.62-1.82,2,2,0,0,1,.18-1,1.13,1.13,0,0,1,.8-.61,1.5,1.5,0,0,1,1.34.78,5.78,5.78,0,0,1,.87,2.59c.11.91.11,1.84.21,2.75"/><path class="cls-8" d="M47.6,127.84a8.43,8.43,0,0,1,.93,3.59,4.37,4.37,0,0,1-.31,1.9,1.89,1.89,0,0,1-.63.82,1.12,1.12,0,0,1-1,.16,1.52,1.52,0,0,1-.81-1.32,5.69,5.69,0,0,1,.45-2.69c.33-.86.76-1.67,1.09-2.53"/><path class="cls-8" d="M47.14,127.64a8.35,8.35,0,0,1-1.8,3.24,4.38,4.38,0,0,1-1.53,1.17,2,2,0,0,1-1,.16,1.15,1.15,0,0,1-.84-.57,1.52,1.52,0,0,1,.32-1.52,5.62,5.62,0,0,1,2.18-1.64c.83-.4,1.71-.69,2.54-1.08"/><path class="cls-8" d="M47.69,127.75a8.16,8.16,0,0,1,3.44,1.39,4.41,4.41,0,0,1,1.35,1.37,2,2,0,0,1,.28,1,1.14,1.14,0,0,1-.47.89,1.49,1.49,0,0,1-1.54-.12,5.78,5.78,0,0,1-1.9-2c-.49-.77-.89-1.61-1.38-2.38"/><path class="cls-9" d="M47.35,129.64a1.59,1.59,0,0,0,0-3.18,1.59,1.59,0,0,0,0,3.18Z"/><path class="cls-10" d="M17.5,215.46a23.63,23.63,0,0,1,4-9.75,12.61,12.61,0,0,1,3.94-3.79,5.51,5.51,0,0,1,2.84-.77,3.21,3.21,0,0,1,2.54,1.34c.85,1.3.38,3.06-.4,4.39a16.22,16.22,0,0,1-5.64,5.34c-2.21,1.38-4.59,2.49-6.81,3.86"/><path class="cls-10" d="M18,215.18a23.73,23.73,0,0,1,9.93-3.58,12.42,12.42,0,0,1,5.46.37,5.51,5.51,0,0,1,2.48,1.58,3.22,3.22,0,0,1,.72,2.78c-.39,1.5-2,2.34-3.52,2.66a16.3,16.3,0,0,1-7.74-.58c-2.52-.71-4.94-1.72-7.45-2.44"/><path class="cls-10" d="M18.64,214.73a23.54,23.54,0,0,1-10.09,3.13,12.31,12.31,0,0,1-5.43-.61,5.43,5.43,0,0,1-2.41-1.69,3.18,3.18,0,0,1-.59-2.81c.45-1.48,2.1-2.24,3.63-2.49a16.16,16.16,0,0,1,7.71.92c2.48.82,4.85,1.94,7.33,2.77"/><path class="cls-10" d="M18.58,216.08a23.61,23.61,0,0,1-7.13-7.78,12.57,12.57,0,0,1-1.76-5.18,5.44,5.44,0,0,1,.5-2.9,3.21,3.21,0,0,1,2.29-1.73c1.53-.22,2.93.94,3.81,2.22a16.29,16.29,0,0,1,2.45,7.36c.31,2.6.31,5.22.62,7.82"/><path class="cls-10" d="M18.89,216.59a23.69,23.69,0,0,1,2.65,10.23,12.51,12.51,0,0,1-.87,5.39,5.49,5.49,0,0,1-1.81,2.33A3.19,3.19,0,0,1,16,235c-1.46-.53-2.14-2.21-2.32-3.75A16.29,16.29,0,0,1,15,223.6c.94-2.44,2.17-4.76,3.11-7.2"/><path class="cls-10" d="M17.59,216a23.67,23.67,0,0,1-5.12,9.23,12.33,12.33,0,0,1-4.35,3.31,5.43,5.43,0,0,1-2.91.45,3.2,3.2,0,0,1-2.37-1.62c-.69-1.39,0-3.08.9-4.32a16.38,16.38,0,0,1,6.2-4.66c2.36-1.12,4.85-1.95,7.21-3.07"/><path class="cls-10" d="M19.15,216.33a23.77,23.77,0,0,1,9.79,4,12.4,12.4,0,0,1,3.82,3.91,5.48,5.48,0,0,1,.8,2.83,3.2,3.2,0,0,1-1.32,2.55c-1.29.86-3.05.41-4.39-.36a16.21,16.21,0,0,1-5.39-5.59c-1.4-2.2-2.53-4.57-3.93-6.78"/><path class="cls-9" d="M18.18,221.73c5.82,0,5.83-9,0-9s-5.83,9,0,9Z"/><path class="cls-11" d="M384.43,118.61a16.13,16.13,0,0,1,2.74-6.61,8.54,8.54,0,0,1,2.68-2.57,3.72,3.72,0,0,1,1.92-.52,2.17,2.17,0,0,1,1.72.91,2.91,2.91,0,0,1-.27,3,11.11,11.11,0,0,1-3.82,3.61c-1.51.94-3.12,1.69-4.62,2.62"/><path class="cls-11" d="M384.74,118.42a15.92,15.92,0,0,1,6.73-2.42,8.54,8.54,0,0,1,3.7.24,3.7,3.7,0,0,1,1.68,1.08,2.17,2.17,0,0,1,.49,1.88A2.93,2.93,0,0,1,395,121a11,11,0,0,1-5.24-.39c-1.71-.48-3.35-1.17-5-1.65"/><path class="cls-11" d="M385.2,118.12a16,16,0,0,1-6.83,2.12,8.51,8.51,0,0,1-3.69-.41,3.8,3.8,0,0,1-1.63-1.15,2.16,2.16,0,0,1-.4-1.91,2.91,2.91,0,0,1,2.46-1.69,11,11,0,0,1,5.23.63c1.68.55,3.29,1.31,5,1.87"/><path class="cls-11" d="M385.17,119a16.07,16.07,0,0,1-4.84-5.27,8.57,8.57,0,0,1-1.19-3.51,3.69,3.69,0,0,1,.34-2A2.17,2.17,0,0,1,381,107.1a3,3,0,0,1,2.58,1.51,11,11,0,0,1,1.66,5c.22,1.76.22,3.54.43,5.3"/><path class="cls-11" d="M385.38,119.38a16.09,16.09,0,0,1,1.79,6.93,8.42,8.42,0,0,1-.59,3.66,3.74,3.74,0,0,1-1.22,1.58,2.17,2.17,0,0,1-1.92.31,2.92,2.92,0,0,1-1.58-2.54,11.07,11.07,0,0,1,.88-5.19c.63-1.66,1.47-3.23,2.11-4.88"/><path class="cls-11" d="M384.49,119a15.9,15.9,0,0,1-3.47,6.26,8.42,8.42,0,0,1-2.95,2.25,3.62,3.62,0,0,1-2,.3,2.16,2.16,0,0,1-1.61-1.1,2.91,2.91,0,0,1,.61-2.92,11.08,11.08,0,0,1,4.21-3.16c1.6-.76,3.29-1.33,4.89-2.08"/><path class="cls-11" d="M385.55,119.2a16.15,16.15,0,0,1,6.64,2.68,8.54,8.54,0,0,1,2.59,2.66,3.71,3.71,0,0,1,.54,1.92,2.2,2.2,0,0,1-.89,1.73,2.93,2.93,0,0,1-3-.25,11,11,0,0,1-3.65-3.79c-.95-1.49-1.72-3.1-2.67-4.6"/><path class="cls-9" d="M384.89,122.86c3.95,0,4-6.13,0-6.13s-3.95,6.13,0,6.13Z"/><path class="cls-8" d="M126.6,11.35a15.71,15.71,0,0,1,2.7-6.51,8.35,8.35,0,0,1,2.63-2.53,3.66,3.66,0,0,1,1.9-.51,2.14,2.14,0,0,1,1.69.89,2.84,2.84,0,0,1-.27,2.93,10.81,10.81,0,0,1-3.76,3.57c-1.48.92-3.07,1.66-4.55,2.58"/><path class="cls-8" d="M126.9,11.16a15.76,15.76,0,0,1,6.63-2.38,8.33,8.33,0,0,1,3.65.24,3.62,3.62,0,0,1,1.65,1.06,2.1,2.1,0,0,1,.48,1.85A2.88,2.88,0,0,1,137,13.71a10.84,10.84,0,0,1-5.17-.39c-1.67-.47-3.29-1.15-5-1.63"/><path class="cls-8" d="M127.36,10.87A15.87,15.87,0,0,1,120.62,13a8.42,8.42,0,0,1-3.63-.41,3.64,3.64,0,0,1-1.6-1.13,2.13,2.13,0,0,1-.4-1.88,2.86,2.86,0,0,1,2.43-1.66,10.76,10.76,0,0,1,5.14.61c1.66.55,3.24,1.3,4.9,1.85"/><path class="cls-8" d="M127.32,11.77a15.9,15.9,0,0,1-4.76-5.2,8.44,8.44,0,0,1-1.18-3.46,3.64,3.64,0,0,1,.34-1.93A2.13,2.13,0,0,1,123.25,0a2.87,2.87,0,0,1,2.54,1.48,10.94,10.94,0,0,1,1.64,4.92c.21,1.73.21,3.48.41,5.22"/><path class="cls-8" d="M127.53,12.11a15.92,15.92,0,0,1,1.77,6.82,8.35,8.35,0,0,1-.59,3.61,3.47,3.47,0,0,1-1.2,1.55,2.14,2.14,0,0,1-1.89.31,2.86,2.86,0,0,1-1.55-2.5,10.83,10.83,0,0,1,.86-5.11c.62-1.63,1.45-3.18,2.08-4.81"/><path class="cls-8" d="M126.66,11.73a16,16,0,0,1-3.42,6.17,8.34,8.34,0,0,1-2.9,2.21,3.75,3.75,0,0,1-2,.3,2.15,2.15,0,0,1-1.58-1.09,2.88,2.88,0,0,1,.6-2.88,11,11,0,0,1,4.14-3.11c1.58-.75,3.24-1.31,4.82-2.05"/><path class="cls-8" d="M127.7,11.94a15.73,15.73,0,0,1,6.54,2.64,8.25,8.25,0,0,1,2.55,2.61,3.53,3.53,0,0,1,.53,1.89,2.09,2.09,0,0,1-.88,1.7,2.86,2.86,0,0,1-2.93-.24,11,11,0,0,1-3.6-3.73c-.93-1.47-1.69-3.06-2.62-4.53"/><path class="cls-9" d="M127.05,15.54c3.89,0,3.9-6,0-6s-3.89,6,0,6Z"/><path class="cls-8" d="M331.78,23.61a15.69,15.69,0,0,1,2.7-6.52,8.35,8.35,0,0,1,2.63-2.53,3.64,3.64,0,0,1,1.9-.51,2.14,2.14,0,0,1,1.69.89,2.86,2.86,0,0,1-.27,2.93,10.81,10.81,0,0,1-3.76,3.57c-1.48.92-3.07,1.66-4.55,2.58"/><path class="cls-8" d="M332.08,23.42A15.64,15.64,0,0,1,338.71,21a8.27,8.27,0,0,1,3.64.24A3.6,3.6,0,0,1,344,22.33a2.14,2.14,0,0,1,.48,1.86A2.88,2.88,0,0,1,342.14,26a11,11,0,0,1-5.17-.38c-1.68-.48-3.29-1.16-5-1.63"/><path class="cls-8" d="M332.54,23.12a15.87,15.87,0,0,1-6.74,2.09,8.42,8.42,0,0,1-3.63-.41,3.67,3.67,0,0,1-1.61-1.13,2.13,2.13,0,0,1-.39-1.88,2.87,2.87,0,0,1,2.42-1.66,10.8,10.8,0,0,1,5.15.61c1.66.55,3.24,1.3,4.9,1.85"/><path class="cls-8" d="M332.5,24a15.9,15.9,0,0,1-4.76-5.2,8.44,8.44,0,0,1-1.18-3.46,3.65,3.65,0,0,1,.34-1.93,2.13,2.13,0,0,1,1.53-1.16A2.87,2.87,0,0,1,331,13.75a10.94,10.94,0,0,1,1.64,4.92c.21,1.73.2,3.49.41,5.22"/><path class="cls-8" d="M332.71,24.36a15.77,15.77,0,0,1,1.76,6.83,8.18,8.18,0,0,1-.58,3.6,3.62,3.62,0,0,1-1.2,1.55,2.12,2.12,0,0,1-1.9.31,2.86,2.86,0,0,1-1.54-2.5,10.87,10.87,0,0,1,.86-5.11c.62-1.63,1.45-3.18,2.08-4.81"/><path class="cls-8" d="M331.84,24a16,16,0,0,1-3.42,6.17,8.28,8.28,0,0,1-2.91,2.21,3.6,3.6,0,0,1-1.94.3A2.15,2.15,0,0,1,322,31.58a2.85,2.85,0,0,1,.6-2.88,10.85,10.85,0,0,1,4.14-3.12c1.58-.75,3.24-1.3,4.82-2"/><path class="cls-8" d="M332.88,24.19a15.78,15.78,0,0,1,6.54,2.64A8.36,8.36,0,0,1,342,29.44a3.65,3.65,0,0,1,.53,1.89,2.14,2.14,0,0,1-.88,1.71,2.86,2.86,0,0,1-2.93-.25,11,11,0,0,1-3.6-3.73c-.94-1.47-1.69-3-2.62-4.53"/><path class="cls-9" d="M332.23,27.79c3.89,0,3.89-6,0-6s-3.89,6,0,6Z"/><path class="cls-8" d="M374.35,250.76a15.92,15.92,0,0,1,2.7-6.51,8.18,8.18,0,0,1,2.64-2.53,3.55,3.55,0,0,1,1.89-.52,2.13,2.13,0,0,1,1.7.9A2.89,2.89,0,0,1,383,245a10.88,10.88,0,0,1-3.76,3.56c-1.49.93-3.08,1.66-4.56,2.58"/><path class="cls-8" d="M374.65,250.57a15.82,15.82,0,0,1,6.64-2.39,8.13,8.13,0,0,1,3.64.25,3.64,3.64,0,0,1,1.66,1,2.18,2.18,0,0,1,.48,1.86,2.87,2.87,0,0,1-2.35,1.77,11,11,0,0,1-5.17-.38c-1.68-.48-3.3-1.15-5-1.63"/><path class="cls-8" d="M375.11,250.27a15.87,15.87,0,0,1-6.73,2.09,8.24,8.24,0,0,1-3.63-.41,3.61,3.61,0,0,1-1.61-1.13,2.12,2.12,0,0,1-.39-1.87,2.86,2.86,0,0,1,2.42-1.67,11,11,0,0,1,5.15.62c1.65.55,3.24,1.29,4.89,1.85"/><path class="cls-8" d="M375.08,251.17a15.71,15.71,0,0,1-4.76-5.2,8.25,8.25,0,0,1-1.18-3.45,3.6,3.6,0,0,1,.34-1.94,2.14,2.14,0,0,1,1.52-1.16,2.87,2.87,0,0,1,2.54,1.49,10.86,10.86,0,0,1,1.64,4.91c.21,1.74.21,3.49.42,5.22"/><path class="cls-8" d="M375.28,251.51a15.82,15.82,0,0,1,1.77,6.83,8.37,8.37,0,0,1-.58,3.61,3.69,3.69,0,0,1-1.21,1.55,2.13,2.13,0,0,1-1.89.3,2.87,2.87,0,0,1-1.55-2.5,10.87,10.87,0,0,1,.86-5.11c.63-1.63,1.45-3.17,2.08-4.8"/><path class="cls-8" d="M374.41,251.14A15.67,15.67,0,0,1,371,257.3a8.49,8.49,0,0,1-2.9,2.22,3.61,3.61,0,0,1-1.94.29,2.14,2.14,0,0,1-1.59-1.08,2.88,2.88,0,0,1,.6-2.88,10.88,10.88,0,0,1,4.15-3.12c1.57-.74,3.24-1.3,4.81-2"/><path class="cls-8" d="M375.46,251.34A15.69,15.69,0,0,1,382,254a8.39,8.39,0,0,1,2.56,2.61,3.75,3.75,0,0,1,.53,1.9,2.16,2.16,0,0,1-.88,1.7,2.88,2.88,0,0,1-2.93-.24,10.75,10.75,0,0,1-3.6-3.74c-.94-1.47-1.69-3-2.63-4.53"/><path class="cls-9" d="M374.81,254.94c3.89,0,3.89-6,0-6s-3.9,6,0,6Z"/><path class="cls-10" d="M382.45,146.72a1.76,1.76,0,1,1-1.76-1.76A1.75,1.75,0,0,1,382.45,146.72Z"/><circle class="cls-10" cx="406.96" cy="171.33" r="4"/><path class="cls-10" d="M220.72,18.7a2.89,2.89,0,1,1-2.89-2.88A2.89,2.89,0,0,1,220.72,18.7Z"/><path class="cls-10" d="M21.74,258.32a5.56,5.56,0,1,1-5.55-5.55A5.55,5.55,0,0,1,21.74,258.32Z"/><path class="cls-10" d="M133.6,110.71a1.76,1.76,0,1,1-1.76-1.75A1.76,1.76,0,0,1,133.6,110.71Z"/><path class="cls-10" d="M84.69,34.7A1.76,1.76,0,1,1,82.93,33,1.76,1.76,0,0,1,84.69,34.7Z"/><path class="cls-10" d="M405.2,219.72a1.76,1.76,0,1,1-1.76-1.75A1.76,1.76,0,0,1,405.2,219.72Z"/><path class="cls-10" d="M19.7,184.61a1.76,1.76,0,1,1-1.76-1.75A1.76,1.76,0,0,1,19.7,184.61Z"/><path class="cls-10" d="M340.21,54.42a1.76,1.76,0,1,1-1.76-1.75A1.76,1.76,0,0,1,340.21,54.42Z"/><path class="cls-10" d="M356,270.65a1.76,1.76,0,1,1-1.75-1.75A1.75,1.75,0,0,1,356,270.65Z"/><path class="cls-11" d="M147.65,97.47s7.44,12.86,0,31l179.71-2.13,1.81-.64V101.09l-4.46-3.62Z"/><path class="cls-12" d="M321.84,98s7,10.84,0,29c0,0,8.34-2.34,8.29-13.5S326.51,98.32,321.84,98Z"/><path class="cls-13" d="M143.4,129.64h0a3.16,3.16,0,0,1,3.13-3.18l174.84-1.58c3.54,0,6.52-4.4,6.52-9.53v-6.47c0-5.16-3-9.53-6.56-9.53H146.55a3.15,3.15,0,0,1-3.15-3.15h0a3.15,3.15,0,0,1,3.15-3.15H321.33c7.1,0,12.87,7.1,12.87,15.83v6.47c0,8.81-5.61,15.77-12.77,15.83l-174.85,1.59A3.16,3.16,0,0,1,143.4,129.64Z"/><rect class="cls-14" x="178.83" y="104.77" width="121.72" height="0.81"/><rect class="cls-14" x="170.85" y="112.1" width="137.2" height="0.81"/><rect class="cls-14" x="178.83" y="119.44" width="121.72" height="0.81"/><path class="cls-11" d="M127.07,175.2s7.44,12.86,0,31l179.71-2.13,1.81-.64V178.82l-4.46-3.62Z"/><path class="cls-12" d="M301.26,175.73s7,10.84,0,29c0,0,8.34-2.34,8.29-13.5S305.93,176.05,301.26,175.73Z"/><path class="cls-8" d="M122.82,207.37h0a3.15,3.15,0,0,1,3.12-3.18l174.85-1.58c3.53,0,6.52-4.4,6.52-9.53v-6.47c0-5.16-3-9.53-6.56-9.53H126a3.15,3.15,0,0,1-3.15-3.15h0a3.15,3.15,0,0,1,3.15-3.15H300.75c7.1,0,12.87,7.1,12.87,15.83v6.47c0,8.81-5.61,15.76-12.78,15.83L126,210.5A3.16,3.16,0,0,1,122.82,207.37Z"/><rect class="cls-14" x="158.25" y="182.5" width="121.72" height="0.81"/><rect class="cls-14" x="150.27" y="189.83" width="137.2" height="0.81"/><rect class="cls-14" x="158.25" y="197.17" width="121.72" height="0.81"/><path class="cls-11" d="M82.93,135.79s9.15,13.05,0,31.49l221-2.16,2.22-.65v-25l-5.48-3.67Z"/><path class="cls-12" d="M298.12,136.33s7.81,11,0,29.44c0,0,9.29-2.38,9.23-13.7S303.33,136.65,298.12,136.33Z"/><path class="cls-15" d="M77.71,168.43h0c0-1.77,1.7-3.21,3.84-3.23l215-1.61c4.35,0,8-4.46,8-9.67v-6.55c0-5.24-3.7-9.67-8.08-9.67H81.58c-2.14,0-3.87-1.44-3.87-3.2h0c0-1.77,1.73-3.2,3.87-3.2h215a16,16,0,0,1,15.83,16.07v6.55A15.8,15.8,0,0,1,296.65,170l-215,1.61C79.48,171.62,77.73,170.2,77.71,168.43Z"/><rect class="cls-14" x="121.27" y="143.19" width="149.7" height="0.83"/><rect class="cls-14" x="111.46" y="150.63" width="168.74" height="0.83"/><rect class="cls-14" x="121.27" y="158.08" width="149.7" height="0.83"/><path class="cls-11" d="M66.09,213.32s9.15,12.86,0,31l221-2.12,2.22-.64V216.94l-5.49-3.62Z"/><path class="cls-12" d="M280.89,214.25s7.81,10.84,0,29c0,0,9.29-2.34,9.23-13.5S286.1,214.57,280.89,214.25Z"/><path class="cls-15" d="M60.86,245.49h0c0-1.74,1.7-3.17,3.84-3.18l215-1.59c4.35,0,8-4.39,8-9.53v-6.46c0-5.16-3.7-9.53-8.07-9.53H64.74c-2.14,0-3.88-1.41-3.88-3.15h0c0-1.74,1.74-3.15,3.88-3.15h215a15.85,15.85,0,0,1,15.83,15.83v6.46A15.69,15.69,0,0,1,279.81,247l-215,1.58C62.63,248.63,60.88,247.23,60.86,245.49Z"/><rect class="cls-14" x="104.43" y="220.61" width="149.7" height="0.81"/><rect class="cls-14" x="94.62" y="227.95" width="168.74" height="0.81"/><rect class="cls-14" x="104.43" y="235.29" width="149.7" height="0.81"/><path class="cls-11" d="M107,250.73s9.15,15.88,0,38.32l221-2.62,2.22-.79V255.19l-5.49-4.46Z"/><path class="cls-12" d="M321.81,251.66s7.81,14,0,37.39c0,0,9.29-3,9.23-17.39S327,252.07,321.81,251.66Z"/><path class="cls-13" d="M101.78,291.17h0a3.87,3.87,0,0,1,3.84-3.9l215-1.94c4.35,0,8-5.39,8-11.68v-7.93c0-6.33-3.7-11.68-8.08-11.68H105.66a3.87,3.87,0,0,1-3.88-3.87h0a3.88,3.88,0,0,1,3.88-3.87H320.6c8.73,0,15.83,8.71,15.83,19.42v7.93c0,10.8-6.9,19.33-15.71,19.41l-215,1.94A3.87,3.87,0,0,1,101.78,291.17Z"/><rect class="cls-14" x="145.35" y="262.15" width="149.7" height="0.81"/><rect class="cls-14" x="135.53" y="269.48" width="168.74" height="0.81"/><rect class="cls-14" x="145.35" y="276.82" width="149.7" height="0.81"/><path class="cls-16" d="M323.33,87.27a15.73,15.73,0,0,0-14.74-15.69c-17.24-1.08-46.06-2.12-67,1.14,16.05-3,55.1-9.53,78.7-8.08h0A11.87,11.87,0,0,0,308.75,54.1c-17.74-.32-54,.48-76,11,0,0,31.53-20.91,82.24-18.71h0a17.71,17.71,0,0,0-19-16.95c-19.28,1.4-50.07,7.25-73.87,28.84,0,0,17.1-32.11,53.6-43.31h0a6.82,6.82,0,0,0-7-1.37c-11.19,4.21-42.42,18-49.78,43.14-7.36-25.14-38.58-38.93-49.77-43.14a6.82,6.82,0,0,0-7,1.37h0c36.5,11.2,53.59,43.31,53.59,43.31C192,36.69,161.16,30.84,141.89,29.44a17.71,17.71,0,0,0-19,17h0c50.71-2.2,82.24,18.71,82.24,18.71-22-10.52-58.24-11.32-76-11a11.86,11.86,0,0,0-11.57,10.54h0c23.59-1.45,62.65,5.12,78.69,8.08-20.89-3.26-49.71-2.22-67-1.14a15.72,15.72,0,0,0-14.74,15.69h0L218.8,89.54h.3l104.23-2.27Z"/><path class="cls-17" d="M220.72,96.13A12.23,12.23,0,0,1,213,93a2,2,0,0,0-1.31-.47H110.56a2.07,2.07,0,0,1-2.06-2.07V87.17a2.07,2.07,0,0,1,2.06-2.07H213a2.08,2.08,0,0,1,1.54.68h0c.24.27,6.14,6.54,11.59.07v0a2.11,2.11,0,0,1,1.59-.73h99.43a2.07,2.07,0,0,1,2.07,2.07v3.26a2.07,2.07,0,0,1-2.07,2.07h-98a2.19,2.19,0,0,0-1.49.61A10,10,0,0,1,220.72,96.13Z"/><path class="cls-14" d="M225.35,62.81c1.39-.92,2.84-1.77,4.28-2.61,3.84-2.23,7.76-4.3,11.75-6.25A190.7,190.7,0,0,1,259,46.45a161.73,161.73,0,0,1,21.66-6.33A122.38,122.38,0,0,1,305,37.28c1,0,2.07,0,3.1,0a.34.34,0,0,0,0-.68,118.8,118.8,0,0,0-24.6,2.23,157,157,0,0,0-22.25,6.07A191.42,191.42,0,0,0,243,52.41c-4.28,2-8.5,4.21-12.62,6.56-1.79,1-3.61,2-5.32,3.2l-.07,0c-.36.24,0,.84.35.59Z"/><path class="cls-14" d="M232.28,70c1.53-.44,3.08-.84,4.63-1.23q6.17-1.55,12.39-2.83,8.82-1.83,17.74-3.16c7-1,14-1.81,21.08-2.24a169.69,169.69,0,0,1,22,0l2.6.2c.44,0,.44-.64,0-.68a158.94,158.94,0,0,0-21.93-.31c-7.14.34-14.25,1.06-21.32,2q-9.24,1.27-18.38,3.13-6.62,1.32-13.18,2.94c-1.91.47-3.85.9-5.72,1.5l-.07,0a.34.34,0,0,0,.18.66Z"/><path class="cls-14" d="M250.06,79.54c.88-.1,1.77-.19,2.66-.27q3.48-.33,7-.56c3.26-.21,6.52-.37,9.79-.44,3.69-.09,7.39-.08,11.09.07a96.17,96.17,0,0,1,10.84,1l1.25.2a.35.35,0,0,0,.42-.24.34.34,0,0,0-.24-.42A91.92,91.92,0,0,0,282,77.72c-3.71-.19-7.43-.23-11.15-.17-3.35.06-6.69.2-10,.4q-3.71.22-7.4.57c-1.1.1-2.2.2-3.29.33h0a.34.34,0,0,0-.34.34.34.34,0,0,0,.34.34Z"/><path class="cls-14" d="M161.14,39l.76.15,2.17.5c1.11.27,2.22.55,3.32.85,1.44.39,2.86.81,4.28,1.25q2.55.78,5.05,1.66,2.79,1,5.54,2.1,3,1.2,5.82,2.57,3,1.44,6,3.09c2,1.12,3.92,2.31,5.8,3.6a60.89,60.89,0,0,1,5.44,4.14c.43.36.85.73,1.27,1.11s.81-.19.48-.48a62.09,62.09,0,0,0-5.37-4.34q-2.8-2-5.77-3.75c-1.94-1.15-3.93-2.22-6-3.23S186,46.38,184,45.53s-3.8-1.55-5.72-2.26c-1.73-.63-3.46-1.22-5.21-1.78-1.49-.47-3-.92-4.51-1.35-1.2-.33-2.4-.65-3.61-1-.82-.21-1.65-.4-2.48-.59-.38-.08-.75-.17-1.13-.24h-.05c-.43-.08-.62.58-.18.67Z"/><path class="cls-14" d="M136.44,60.14c1.48,0,3,0,4.44.06q5.85.15,11.7.55,8.29.55,16.57,1.6c6.39.81,12.76,1.86,19.06,3.23a145.67,145.67,0,0,1,19,5.36c.77.27,1.52.56,2.28.85.41.16.59-.5.18-.66a137.44,137.44,0,0,0-19.06-5.72C184.27,64,177.87,62.84,171.43,62q-8.48-1.15-17-1.77-6.21-.47-12.44-.65c-1.81-.06-3.65-.16-5.47-.09h-.08a.34.34,0,0,0,0,.68Z"/><path class="cls-14" d="M130.7,79.66c1.2-.1,2.41-.17,3.61-.24,3.17-.19,6.34-.32,9.51-.41q6.84-.2,13.69-.1c5.29.07,10.58.28,15.85.68,5.49.41,11,1,16.39,2l1.91.35c.43.08.62-.58.18-.67a162,162,0,0,0-16.29-2.14c-5.36-.46-10.74-.71-16.11-.82q-7-.15-14.08,0c-3.39.08-6.79.21-10.18.4-1.47.08-3,.15-4.42.29h-.06c-.43,0-.44.72,0,.68Z"/></g></g></svg>